<svg xmlns="http://www.w3.org/2000/svg" id="katman_1" data-name="katman 1" viewBox="0 0 173.89 68.69"><defs><style>.cls-1{fill:#8b8b8b}.cls-2{fill:#ec1c24}.cls-3{fill:#fff}</style></defs><path d="m10.26 34.01-3.1 14H0l8.35-37.63h7.16l-.79 3.38a10.39 10.39 0 0 1 8.23-4.06c6.15 0 10.32 4.06 10.32 11.28 0 8.18-5.08 17.31-14.32 17.31a10.24 10.24 0 0 1-8.69-4.28Zm15.51-11.56c0-3.9-2.54-6.38-6-6.38a8.15 8.15 0 0 0-6.21 3.27l-2.17 9.42a7.41 7.41 0 0 0 6.37 3.16c4.74 0 8.01-4.46 8.01-9.47ZM46.07 10.38l-3.61 16.46a7.9 7.9 0 0 0-.22 1.58c0 2.48 2 3.5 4.62 3.5s4.85-1.64 6.43-3.22l4.06-18.32h7.16l-6.04 27.24h-7.16l.79-3.49c-2.14 2-5.07 4.17-9.08 4.17-5.24 0-8.57-2.71-8.57-6.94a10.87 10.87 0 0 1 .34-2.25l4.1-18.73ZM62.37 33.38l4-5a13.9 13.9 0 0 0 9.52 4.24c2.42 0 3.95-1.3 3.95-2.82 0-3.66-13.88-2.76-13.88-10.94 0-4.73 4-9.19 11.23-9.19a16.47 16.47 0 0 1 11.55 4.4l-3.72 4.79a11.13 11.13 0 0 0-8-3.55c-2.54 0-4 1.13-4 2.54 0 3.33 13.87 2.59 13.87 10.88 0 5.19-4.34 9.53-11.78 9.53-4.91.03-9.7-1.64-12.74-4.88ZM101.1 10.38l-3.61 16.46a7.9 7.9 0 0 0-.22 1.58c0 2.48 2 3.5 4.62 3.5s4.85-1.64 6.43-3.22l4.06-18.32h7.16l-6 27.23h-7.16l.79-3.49c-2.15 2-5.08 4.17-9.08 4.17-5.25 0-8.57-2.71-8.57-6.94a10.87 10.87 0 0 1 .34-2.25l4.11-18.72ZM118.36 37.62 126.65 0h7.16l-8.29 37.62ZM154.39 13.99l.73-3.61h7.22l-6 27.23h-7.25l.79-3.38a10.27 10.27 0 0 1-8.18 4.06c-6.14 0-10.37-4.06-10.37-11.28 0-8.23 5.13-17.31 14.38-17.31a10.22 10.22 0 0 1 8.68 4.29Zm-15.56 11.56c0 3.89 2.59 6.37 6 6.37a8.16 8.16 0 0 0 6.29-3.3l2.08-9.42a7.38 7.38 0 0 0-6.37-3.16c-4.68.03-8 4.49-8 9.51Z" class="cls-1"/><path d="m45.05 63.79 4-5a13.86 13.86 0 0 0 9.53 4.29c2.42 0 4-1.3 4-2.82 0-3.67-13.88-2.77-13.88-10.94 0-4.74 4-9.19 11.23-9.19a16.51 16.51 0 0 1 11.56 4.39l-3.73 4.8a11.13 11.13 0 0 0-8-3.55c-2.54 0-4 1.12-4 2.53 0 3.33 13.87 2.6 13.87 10.89 0 5.18-4.34 9.53-11.78 9.53-4.96-.02-9.76-1.72-12.8-4.93ZM94.55 68.02l-1.66-18.55-9.84 18.55h-7.67l-2.25-27.24h7.21l1 18.33 10-18.33h6.37l1.86 18.33 9.19-18.33h7.73l-14.27 27.24ZM111.81 68.02l6-27.24h7.16l-6 27.24ZM122.89 63.79l4-5a13.9 13.9 0 0 0 9.53 4.29c2.43 0 3.95-1.3 3.95-2.82 0-3.67-13.87-2.77-13.87-10.94 0-4.74 4-9.19 11.22-9.19a16.49 16.49 0 0 1 11.56 4.39l-3.72 4.8a11.15 11.15 0 0 0-8-3.55c-2.54 0-3.95 1.12-3.95 2.53 0 3.33 13.87 2.6 13.87 10.89 0 5.18-4.34 9.53-11.78 9.53-5-.02-9.81-1.72-12.81-4.93ZM147.5 63.79l4-5a13.9 13.9 0 0 0 9.53 4.29c2.43 0 4-1.3 4-2.82 0-3.67-13.87-2.77-13.87-10.94 0-4.74 3.95-9.19 11.22-9.19a16.49 16.49 0 0 1 11.51 4.37l-3.72 4.8a11.15 11.15 0 0 0-8-3.55c-2.54 0-4 1.12-4 2.53 0 3.33 13.88 2.6 13.88 10.89 0 5.18-4.35 9.53-11.79 9.53-4.92 0-9.71-1.7-12.76-4.91Z" class="cls-2"/><path d="M120.46 34.18a2.34 2.34 0 0 1 2.32-2.29 2 2 0 0 1 1.93 2 2.34 2.34 0 0 1-2.32 2.29 2 2 0 0 1-1.93-2Z" class="cls-3"/></svg>